<?xml version="1.0" standalone="no"?>
<!DOCTYPE svg PUBLIC "-//W3C//DTD SVG 20010904//EN"
 "http://www.w3.org/TR/2001/REC-SVG-20010904/DTD/svg10.dtd">
<svg version="1.0" xmlns="http://www.w3.org/2000/svg"
 width="600.000000pt" height="600.000000pt" viewBox="0 0 600.000000 600.000000"
 preserveAspectRatio="xMidYMid meet">
<g transform="translate(0.000000,600.000000) scale(0.050000,-0.050000)"
fill="#fefefe" stroke="none">
<path d="M2612 11096 c-125 -669 12 -1481 367 -2171 353 -686 825 -1143 1851
-1795 914 -581 1185 -838 1410 -1339 209 -466 122 -1112 -200 -1494 l-57 -67
67 202 c387 1160 -261 2041 -2120 2885 -780 354 -1297 624 -1626 848 -107 73
-112 68 -72 -67 355 -1195 1118 -2029 2447 -2673 750 -364 965 -552 1131 -993
81 -215 85 -325 17 -426 -362 -532 -1268 -1292 -2355 -1974 -185 -117 -332
-212 -326 -212 31 0 1033 231 1303 301 1657 427 2753 989 3573 1831 638 656
911 1198 1109 2206 197 998 500 1395 1128 1474 l108 14 -248 121 c-237 114
-259 130 -449 325 -739 759 -1755 247 -2136 -1077 -37 -129 -72 -239 -77 -244
-5 -6 -39 64 -76 154 -423 1053 -960 1592 -2451 2464 -1079 631 -1747 1133
-2204 1657 l-101 116 -13 -66z"/>
</g>
</svg>
