<?xml version="1.0" standalone="no"?>
<!DOCTYPE svg PUBLIC "-//W3C//DTD SVG 20010904//EN"
 "http://www.w3.org/TR/2001/REC-SVG-20010904/DTD/svg10.dtd">
<svg version="1.0" xmlns="http://www.w3.org/2000/svg"
 width="600.000000pt" height="600.000000pt" viewBox="0 0 600.000000 600.000000"
 preserveAspectRatio="xMidYMid meet">
<g transform="translate(0.000000,600.000000) scale(0.050000,-0.050000)"
fill="#4336ad" stroke="none">
<path d="M0 6000 l0 -6000 6000 0 6000 0 0 6000 0 6000 -6000 0 -6000 0 0
-6000z m2999 4764 c448 -435 1018 -841 1931 -1375 1491 -872 2028 -1411 2451
-2464 37 -90 71 -160 76 -154 5 5 40 115 77 244 381 1324 1397 1836 2136 1077
190 -195 212 -211 449 -325 l248 -121 -108 -14 c-628 -79 -931 -476 -1128
-1474 -198 -1008 -471 -1550 -1109 -2206 -820 -842 -1916 -1404 -3573 -1831
-270 -70 -1272 -301 -1303 -301 -6 0 141 95 326 212 1087 682 1993 1442 2355
1974 68 101 64 211 -17 426 -166 441 -381 629 -1131 993 -1329 644 -2092 1478
-2447 2673 -40 135 -35 140 72 67 329 -224 846 -494 1626 -848 1859 -844 2507
-1725 2120 -2885 l-67 -202 57 67 c322 382 409 1028 200 1494 -225 501 -496
758 -1410 1339 -1026 652 -1498 1109 -1851 1795 -355 690 -492 1502 -367 2171
l13 66 101 -116 c56 -64 179 -191 273 -282z"/>
</g>
</svg>
